HIERARCHY
ROOT hip
{
	OFFSET	0.00  0.00  0.00 
	CHANNELS 6 Xposition Yposition Zposition Xrotation Zrotation Yrotation
	JOINT abdomen
	{
		OFFSET	0.000000 0.000000 0.000000
		CHANNELS 3 Xrotation Zrotation Yrotation
		JOINT chest
		{
			OFFSET	0.000000 5.018152 -1.882228
			CHANNELS 3 Xrotation Zrotation Yrotation
			JOINT neckDummy
			{
				OFFSET	0.000000 8.316447 0.784897
				CHANNELS 3 Xrotation Yrotation Zrotation
				JOINT neck
				{
					OFFSET	0.000000 2.280413 -0.392801
					CHANNELS 3 Xrotation Zrotation Yrotation
					JOINT head
					{
						OFFSET	0.000000 3.496879 0.529469
						CHANNELS 3 Xrotation Zrotation Yrotation
						JOINT figureHair
						{
							OFFSET	0.000000 4.699570 0.720622
							CHANNELS 3 Zrotation Yrotation Xrotation
							End Site
							{
								OFFSET 0.000000 -6.419331 0.000000
							}
						}
					}
				}
			}
			JOINT lCollar
			{
				OFFSET	0.599237 8.316447 0.784897
				CHANNELS 3 Yrotation Zrotation Xrotation
				JOINT lShldr
				{
					OFFSET	6.421198 0.010146 -0.332128
					CHANNELS 3 Zrotation Yrotation Xrotation
					JOINT lForeArm
					{
						OFFSET	10.552783 0.025574 0.125508
						CHANNELS 3 Yrotation Zrotation Xrotation
						JOINT lHand
						{
							OFFSET	11.035963 0.319619 0.041520
							CHANNELS 3 Zrotation Yrotation Xrotation
							End Site
							{
								OFFSET 10.353753 0.000000 0.000000
							}
						}
					}
				}
			}
			JOINT rCollar
			{
				OFFSET	-0.599237 8.316447 0.784897
				CHANNELS 3 Yrotation Zrotation Xrotation
				JOINT rShldr
				{
					OFFSET	-6.421198 0.010146 -0.332128
					CHANNELS 3 Zrotation Yrotation Xrotation
					JOINT rForeArm
					{
						OFFSET	-10.552783 0.025574 0.125508
						CHANNELS 3 Yrotation Zrotation Xrotation
						JOINT rHand
						{
							OFFSET	-11.035963 0.319619 0.041520
							CHANNELS 3 Zrotation Yrotation Xrotation
							End Site
							{
								OFFSET -10.353753 0.000000 0.000000
							}
						}
					}
				}
			}
		}
	}
	JOINT lThigh
	{
		OFFSET	4.500466 -6.400484 -1.832696
		CHANNELS 3 Xrotation Zrotation Yrotation
		JOINT lShin
		{
			OFFSET	-1.359117 -18.918689 1.179887
			CHANNELS 3 Xrotation Zrotation Yrotation
			JOINT lFoot
			{
				OFFSET	-0.652380 -17.215186 -0.312137
				CHANNELS 3 Xrotation Yrotation Zrotation
				End Site
				{
					OFFSET 0.000000 0.000000 10.353752
				}
			}
		}
	}
	JOINT rThigh
	{
		OFFSET	-4.500466 -6.400484 -1.832696
		CHANNELS 3 Xrotation Zrotation Yrotation
		JOINT rShin
		{
			OFFSET	1.359117 -18.918689 1.179887
			CHANNELS 3 Xrotation Zrotation Yrotation
			JOINT rFoot
			{
				OFFSET	0.652380 -17.215186 -0.312137
				CHANNELS 3 Xrotation Yrotation Zrotation
				End Site
				{
					OFFSET 0.000000 0.000000 10.353752
				}
			}
		}
	}
}
MOTION
Frames:     15
Frame Time: 0.066667
0.000000 42.014908 0.240040 0.000000 0.000000 0.000000 1.708550 -2.819020 -1.587180 0.740091 -2.301240 -0.241858 0.000000 0.000000 0.000000 -0.565186 1.052750 0.209160 1.112080 -1.126870 -0.154811 0.000000 0.000000 0.000000 7.072560 -0.363942 0.170431 -56.723598 -40.869099 -6.915280 -111.778999 -5.579040 -66.412201 -27.018299 -2.346310 -20.465099 11.338400 5.871180 0.059949 53.912701 37.328701 11.335700 117.903000 -21.424400 -49.617298 30.946199 17.214300 -22.358200 -7.548709 4.016634 0.126881 15.890360 -3.336124 -0.813312 -8.628910 1.044381 -0.888102 -7.530616 -4.334307 0.100752 15.830232 3.319340 0.622262 -8.660608 -1.559428 0.936809 
0.000000 42.014908 0.240040 0.000000 0.000000 0.000000 -3.218753 -1.603349 -0.935147 -3.672807 -1.222426 -0.107902 0.000000 0.000000 0.000000 -4.089359 -0.297400 0.151897 -2.717599 -0.843003 -0.070731 0.000000 0.000000 0.000000 7.634285 4.225814 0.451727 -60.365326 -42.673130 -4.505224 -121.521255 -10.175222 -68.899277 -42.944046 -7.200101 -18.209236 8.210785 0.234496 0.266399 57.265816 38.833267 13.479513 124.886459 -9.365026 -49.069199 39.341644 16.907276 -19.472954 -7.548709 4.016634 0.126881 15.890360 -3.336124 -0.813312 -8.628910 1.044381 -0.888102 -7.530616 -4.334307 0.100752 15.830232 3.319340 0.622262 -8.660608 -1.559428 0.936809 
0.000000 42.014908 0.240040 0.000000 0.000000 0.000000 -7.163570 -0.601479 -0.397294 -7.234830 -0.324593 0.002633 0.000000 0.000000 0.000000 -6.920770 -1.395800 0.094542 -5.709630 -0.547221 0.003293 0.000000 0.000000 0.000000 8.064120 7.798780 0.633113 -63.929001 -44.234100 -2.139080 -129.910004 -14.377200 -71.070396 -56.242699 -11.140200 -16.348900 5.561190 -4.355430 0.433288 60.713001 40.142799 15.677700 130.770004 1.224650 -48.617599 46.421001 16.455000 -17.038200 -7.548709 4.016634 0.126881 15.890360 -3.336124 -0.813312 -8.628910 1.044381 -0.888102 -7.530616 -4.334307 0.100752 15.830232 3.319340 0.622262 -8.660608 -1.559428 0.936809 
0.000000 42.014908 0.240040 0.000000 0.000000 0.000000 -7.163570 -0.601479 -0.397294 -7.234830 -0.324593 0.002633 0.000000 0.000000 0.000000 -6.920770 -1.395800 0.094542 -5.709630 -0.547221 0.003293 0.000000 0.000000 0.000000 8.064120 7.798780 0.633113 -63.929001 -44.234100 -2.139080 -129.910004 -14.377200 -71.070396 -56.242699 -11.140200 -16.348900 5.561190 -4.355430 0.433288 60.713001 40.142799 15.677700 130.770004 1.224650 -48.617599 46.421001 16.455000 -17.038200 -7.548709 4.016634 0.126881 15.890360 -3.336124 -0.813312 -8.628910 1.044381 -0.888102 -7.530616 -4.334307 0.100752 15.830232 3.319340 0.622262 -8.660608 -1.559428 0.936809 
0.000000 42.014908 0.240040 0.000000 0.000000 0.000000 -9.424442 -0.338081 -0.261103 -8.960731 -0.180921 0.030230 0.000000 0.000000 0.000000 -8.435458 -1.835530 0.186751 -8.228858 -1.122287 -0.027202 0.000000 0.000000 0.000000 8.526553 10.950732 1.213272 -58.027763 -43.440346 -6.125094 -127.987091 -10.596898 -70.187027 -58.518658 -13.323408 -15.718052 5.625069 -6.147332 0.511494 53.550587 39.400845 11.158529 131.072937 -3.773978 -48.466309 46.906372 19.197412 -16.892515 -7.548709 4.016634 0.126881 15.890360 -3.336124 -0.813312 -8.628910 1.044381 -0.888102 -7.530616 -4.334307 0.100752 15.830232 3.319340 0.622262 -8.660608 -1.559428 0.936809 
0.000000 42.014908 0.240040 0.000000 0.000000 0.000000 -7.163570 -0.601479 -0.397294 -7.234830 -0.324593 0.002633 0.000000 0.000000 0.000000 -6.920770 -1.395800 0.094542 -5.709630 -0.547221 0.003293 0.000000 0.000000 0.000000 8.064120 7.798780 0.633113 -56.723598 -40.869099 -6.915280 -127.276001 -10.272500 -69.693298 -61.144699 -15.243000 -15.114300 5.561190 -4.355430 0.433288 53.912701 37.328701 11.335700 131.651993 -6.040600 -48.366100 48.967400 22.518400 -16.183201 -7.548709 4.016634 0.126881 15.890360 -3.336124 -0.813312 -8.628910 1.044381 -0.888102 -7.530616 -4.334307 0.100752 15.830232 3.319340 0.622262 -8.660608 -1.559428 0.936809 
0.000000 42.014908 0.240040 0.000000 0.000000 0.000000 4.568610 -2.087560 -1.172120 1.912480 -1.201350 -0.155951 0.000000 0.000000 0.000000 1.032600 0.975571 -0.334107 7.529020 2.149210 0.150934 0.000000 0.000000 0.000000 5.552630 -8.178670 -2.203640 -66.831299 -36.383999 0.133303 -128.451004 -17.676701 -70.206398 -61.144699 -15.243000 -15.114300 6.043130 5.299680 0.004177 70.925400 33.944500 21.944799 130.914993 -1.764770 -48.599400 51.275608 23.688055 -15.321945 -7.548709 4.016634 0.126881 15.890360 -3.336124 -0.813312 -8.628910 1.044381 -0.888102 -7.530616 -4.334307 0.100752 15.830232 3.319340 0.622262 -8.660608 -1.559428 0.936809 
0.000000 42.014908 0.240040 0.000000 0.000000 0.000000 11.579406 -2.956616 -1.633909 7.672511 -1.653065 -0.255944 0.000000 0.000000 0.000000 6.010209 2.455564 -0.589615 17.735388 3.793229 0.324829 0.000000 0.000000 0.000000 3.169167 -17.994272 -3.967563 -72.392036 -34.254700 3.998271 -130.011917 -22.494038 -70.857857 -61.144699 -15.243000 -15.114300 7.155472 11.173122 -0.325249 80.010384 32.352028 27.615406 130.200684 1.418349 -48.776012 53.409607 22.927841 -14.473262 -7.548709 4.016634 0.126881 15.890360 -3.336124 -0.813312 -8.628910 1.044381 -0.888102 -7.530616 -4.334307 0.100752 15.830232 3.319340 0.622262 -8.660608 -1.559428 0.936809 
0.000000 42.014908 0.240040 0.000000 0.000000 0.000000 12.065351 -2.990643 -1.661983 8.401896 -1.596638 -0.268303 0.000000 0.000000 0.000000 6.609861 2.627043 -0.608444 21.810057 3.934100 0.456701 0.000000 0.000000 0.000000 1.995199 -18.996199 -4.175197 -71.774178 -34.491287 3.568831 -131.372116 -23.400911 -71.361946 -61.144699 -15.243000 -15.114300 8.148341 11.686152 -0.430993 79.000938 32.528969 26.985338 129.845993 2.230737 -48.826591 55.174816 21.197090 -13.739876 -7.548709 4.016634 0.126881 15.890360 -3.336124 -0.813312 -8.628910 1.044381 -0.888102 -7.530616 -4.334307 0.100752 15.830232 3.319340 0.622262 -8.660608 -1.559428 0.936809 
0.000000 42.014908 0.240040 0.000000 0.000000 0.000000 8.802927 -2.573128 -1.445126 5.886573 -1.342567 -0.224486 0.000000 0.000000 0.000000 4.420885 1.972786 -0.490104 20.789726 3.123570 0.494106 0.000000 0.000000 0.000000 2.599946 -14.589363 -3.397053 -68.684883 -35.674229 1.421627 -132.333511 -22.444080 -71.687363 -61.144699 -15.243000 -15.114300 8.088605 9.005948 -0.319151 73.953728 33.413673 23.835003 129.725311 1.852649 -48.812176 56.376644 19.455135 -13.224515 -7.548709 4.016634 0.126881 15.890360 -3.336124 -0.813312 -8.628910 1.044381 -0.888102 -7.530616 -4.334307 0.100752 15.830232 3.319340 0.622262 -8.660608 -1.559428 0.936809 
0.000000 42.014908 0.240040 0.000000 0.000000 0.000000 4.568610 -2.087560 -1.172120 1.912480 -1.201350 -0.155951 0.000000 0.000000 0.000000 1.032600 0.975571 -0.334107 15.711100 1.913380 0.384601 0.000000 0.000000 0.000000 5.552630 -8.178670 -2.203640 -66.831299 -36.383999 0.133303 -132.697998 -21.670300 -71.802803 -61.144699 -15.243000 -15.114300 6.043130 5.299680 0.004177 70.925400 33.944500 21.944799 129.712997 1.464340 -48.793800 56.820499 18.661301 -13.029900 -7.548709 4.016634 0.126881 15.890360 -3.336124 -0.813312 -8.628910 1.044381 -0.888102 -7.530616 -4.334307 0.100752 15.830232 3.319340 0.622262 -8.660608 -1.559428 0.936809 
0.000000 42.014908 0.240040 0.000000 0.000000 0.000000 1.702022 -1.838837 -0.999305 -1.785572 -1.373537 -0.092986 0.000000 0.000000 0.000000 -2.038430 0.090186 -0.225087 8.173407 0.833870 0.121189 0.000000 0.000000 0.000000 10.630495 -2.857206 -1.135148 -66.831299 -36.383999 0.133303 -132.697998 -21.670300 -71.802803 -61.144699 -15.243000 -15.114300 1.863266 2.467290 0.476123 70.925400 33.944500 21.944799 129.712997 1.464340 -48.793800 56.820499 18.661301 -13.029900 -7.548709 4.016634 0.126881 15.890360 -3.336124 -0.813312 -8.628910 1.044381 -0.888102 -7.530616 -4.334307 0.100752 15.830232 3.319340 0.622262 -8.660608 -1.559428 0.936809 
0.000000 42.014908 0.240040 0.000000 0.000000 0.000000 0.795314 -1.817493 -0.953247 -3.677318 -1.619892 -0.061197 0.000000 0.000000 0.000000 -3.566725 -0.340545 -0.188158 2.025925 0.329747 -0.121341 0.000000 0.000000 0.000000 14.442920 -0.470703 -0.610468 -66.831299 -36.383999 0.133303 -132.697998 -21.670300 -71.802803 -61.144699 -15.243000 -15.114300 -1.461732 1.339741 0.806735 70.925400 33.944500 21.944799 129.712997 1.464340 -48.793800 56.820499 18.661301 -13.029900 -7.548709 4.016634 0.126881 15.890360 -3.336124 -0.813312 -8.628910 1.044381 -0.888102 -7.530616 -4.334307 0.100752 15.830232 3.319340 0.622262 -8.660608 -1.559428 0.936809 
0.000000 42.014908 0.240040 0.000000 0.000000 0.000000 2.003780 -1.935470 -1.028070 -2.283620 -1.591230 -0.085024 0.000000 0.000000 0.000000 -2.399560 -0.001787 -0.233558 1.680470 0.824313 -0.122753 0.000000 0.000000 0.000000 12.807300 -2.553070 -1.018170 -66.831299 -36.383999 0.133303 -132.697998 -21.670300 -71.802803 -61.144699 -15.243000 -15.114300 -0.158125 2.480760 0.649287 70.925400 33.944500 21.944799 129.712997 1.464340 -48.793800 56.820499 18.661301 -13.029900 -7.548709 4.016634 0.126881 15.890360 -3.336124 -0.813312 -8.628910 1.044381 -0.888102 -7.530616 -4.334307 0.100752 15.830232 3.319340 0.622262 -8.660608 -1.559428 0.936809 
0.000000 42.014908 0.240040 0.000000 0.000000 0.000000 4.568610 -2.087560 -1.172120 1.912480 -1.201350 -0.155951 0.000000 0.000000 0.000000 1.032600 0.975571 -0.334107 7.529020 2.149210 0.150934 0.000000 0.000000 0.000000 5.552630 -8.178670 -2.203640 -66.831299 -36.383999 0.133303 -132.697998 -21.670300 -71.802803 -61.144699 -15.243000 -15.114300 6.043130 5.299680 0.004177 70.925400 33.944500 21.944799 129.712997 1.464340 -48.793800 56.820499 18.661301 -13.029900 -7.548709 4.016634 0.126881 15.890360 -3.336124 -0.813312 -8.628910 1.044381 -0.888102 -7.530616 -4.334307 0.100752 15.830232 3.319340 0.622262 -8.660608 -1.559428 0.936809 
